<svg width="40" height="40" viewBox="0 0 40 40" fill="none" xmlns="http://www.w3.org/2000/svg">
<path d="M26.3608 16.6641C26.3716 16.81 26.3716 16.955 26.3716 17.1C26.3716 21.5375 22.9941 26.6508 16.8216 26.6508C14.92 26.6508 13.1533 26.1 11.6666 25.1433C11.9366 25.1741 12.1966 25.185 12.4775 25.185C14.0466 25.185 15.4908 24.655 16.645 23.7508C15.1691 23.72 13.9325 22.7533 13.5058 21.4233C13.7133 21.4541 13.9216 21.475 14.14 21.475C14.4408 21.475 14.7433 21.4333 15.0241 21.3608C13.485 21.0491 12.3325 19.6983 12.3325 18.0666V18.025C12.78 18.2741 13.2991 18.43 13.8491 18.4508C12.945 17.8491 12.3525 16.82 12.3525 15.6558C12.3525 15.0325 12.5183 14.4608 12.8091 13.9625C14.4616 15.9983 16.9458 17.3291 19.7308 17.475C19.6791 17.225 19.6475 16.9658 19.6475 16.7058C19.6475 14.8558 21.1441 13.3491 23.0041 13.3491C23.9708 13.3491 24.8433 13.7541 25.4566 14.4091C26.215 14.2633 26.9416 13.9825 27.5866 13.5983C27.3375 14.3775 26.8066 15.0325 26.1108 15.4483C26.7866 15.375 27.4416 15.1883 28.0433 14.9283C27.5866 15.5933 27.0158 16.1858 26.3608 16.6641Z" fill="#FF5029"/>
<circle cx="20" cy="20" r="19.5" stroke="#FF5029"/>
</svg>
