<svg width="40" height="40" viewBox="0 0 40 40" fill="none" xmlns="http://www.w3.org/2000/svg">
<path d="M19.9992 16.1475C17.8709 16.1475 16.1467 17.8725 16.1467 20C16.1467 22.1283 17.8709 23.8533 19.9992 23.8533C22.1259 23.8533 23.8517 22.1283 23.8517 20C23.8517 17.8725 22.1259 16.1475 19.9992 16.1475ZM19.9992 22.5033C18.6167 22.5033 17.4959 21.3825 17.4959 20.0008C17.4959 18.6183 18.6167 17.4983 19.9992 17.4983C21.3817 17.4983 22.5009 18.6183 22.5009 20.0008C22.5009 21.3825 21.3817 22.5033 19.9992 22.5033Z" fill="#FF5029"/>
<path d="M24.005 16.9041C24.5012 16.9041 24.9034 16.5019 24.9034 16.0058C24.9034 15.5096 24.5012 15.1074 24.005 15.1074C23.5089 15.1074 23.1067 15.5096 23.1067 16.0058C23.1067 16.5019 23.5089 16.9041 24.005 16.9041Z" fill="#FF5029"/>
<path d="M27.1109 15.0927C26.72 14.0852 25.9242 13.2886 24.9167 12.8994C24.3342 12.6802 23.7184 12.5627 23.095 12.5494C22.2925 12.5144 22.0384 12.5044 20.0034 12.5044C17.9684 12.5044 17.7075 12.5044 16.9117 12.5494C16.29 12.5619 15.6742 12.6794 15.0917 12.8994C14.0834 13.2886 13.2875 14.0852 12.8975 15.0927C12.6784 15.6761 12.5609 16.2911 12.5484 16.9144C12.5125 17.7161 12.5017 17.9702 12.5017 20.0061C12.5017 22.0411 12.5017 22.3002 12.5484 23.0977C12.5609 23.7211 12.6784 24.3361 12.8975 24.9202C13.2884 25.9269 14.0842 26.7236 15.0925 27.1136C15.6725 27.3402 16.2884 27.4686 16.9134 27.4886C17.7159 27.5236 17.97 27.5344 20.005 27.5344C22.04 27.5344 22.3009 27.5344 23.0967 27.4886C23.7192 27.4761 24.335 27.3577 24.9184 27.1394C25.9259 26.7486 26.7217 25.9527 27.1125 24.9452C27.3317 24.3619 27.4492 23.7469 27.4617 23.1236C27.4975 22.3219 27.5084 22.0677 27.5084 20.0319C27.5084 17.9961 27.5084 17.7377 27.4617 16.9402C27.4509 16.3086 27.3342 15.6827 27.1109 15.0927ZM26.0959 23.0361C26.09 23.5161 26.0034 23.9919 25.8367 24.4427C25.5825 25.0986 25.065 25.6169 24.41 25.8686C23.9642 26.0344 23.4942 26.1211 23.0184 26.1277C22.2267 26.1644 22.0034 26.1736 19.9734 26.1736C17.9417 26.1736 17.7342 26.1736 16.9275 26.1277C16.4534 26.1219 15.9817 26.0344 15.5367 25.8686C14.8792 25.6177 14.3584 25.0994 14.1042 24.4427C13.9409 23.9977 13.8525 23.5269 13.845 23.0519C13.8092 22.2602 13.8009 22.0369 13.8009 20.0069C13.8009 17.9761 13.8009 17.7686 13.845 16.9611C13.8509 16.4811 13.9375 16.0061 14.1042 15.5552C14.3584 14.8977 14.8792 14.3802 15.5367 14.1286C15.9817 13.9636 16.4534 13.8761 16.9275 13.8694C17.72 13.8336 17.9425 13.8236 19.9734 13.8236C22.0042 13.8236 22.2125 13.8236 23.0184 13.8694C23.4942 13.8752 23.9642 13.9627 24.41 14.1286C25.065 14.3811 25.5825 14.8994 25.8367 15.5552C26 16.0002 26.0884 16.4711 26.0959 16.9461C26.1317 17.7386 26.1409 17.9611 26.1409 19.9919C26.1409 22.0219 26.1409 22.2402 26.105 23.0369H26.0959V23.0361Z" fill="#FF5029"/>
<circle cx="20" cy="20" r="19.5" stroke="#FF5029"/>
</svg>
